<svg enable-background="new 0 0 24 24" height="24" viewBox="0 0 24 24" width="24" xmlns="http://www.w3.org/2000/svg"><path d="m0 0h24v24h-24z" fill="none"/><path d="m17.66 9.53-7.07 7.07-4.24-4.24 1.41-1.41 2.83 2.83 5.66-5.66zm-13.66 2.47c0-2.33 1.02-4.42 2.62-5.88l2.38 2.38v-6h-6l2.2 2.2c-1.96 1.82-3.2 4.41-3.2 7.3 0 5.19 3.95 9.45 9 9.95v-2.02c-3.94-.49-7-3.86-7-7.93zm18 0c0-5.19-3.95-9.45-9-9.95v2.02c3.94.49 7 3.86 7 7.93 0 2.33-1.02 4.42-2.62 5.88l-2.38-2.38v6h6l-2.2-2.2c1.96-1.82 3.2-4.41 3.2-7.3z"/></svg>